<svg width="179" height="99" viewBox="0 0 179 99" fill="none" xmlns="http://www.w3.org/2000/svg">
<g clip-path="url(#clip0_49_49)">
<path d="M32.4442 66.4662C31.3226 66.9596 30.2258 67.53 29.072 67.9342C24.6353 69.4914 20.2209 71.1429 15.7097 72.4497C13.9107 72.9705 11.8462 72.9233 9.95537 72.7026C7.44669 72.41 6.23081 70.4734 6.57572 67.9614C6.89334 65.6603 8.11914 63.7955 9.52113 62.0424C12.7941 57.9533 16.8735 54.8066 21.3425 52.1458C25.0571 49.9339 28.9479 48.1262 33.2507 47.3848C35.4293 47.0103 37.608 46.9558 39.7246 47.8063C40.9901 48.3147 41.7196 49.2074 41.9603 50.5439C42.4293 53.1526 41.7618 55.6323 41.139 58.117C41.0521 58.4617 40.9628 58.8063 40.8065 59.4188C41.2879 59.0965 41.5534 58.9427 41.7941 58.7518C45.0695 56.1654 48.3102 53.532 51.6328 51.0076C52.7048 50.1943 53.9479 49.562 55.1961 49.0412C56.4641 48.5131 57.0546 49.1181 57.2234 50.4795C57.5484 53.0732 56.809 55.2182 55.0745 57.1672C54.067 58.298 53.3102 59.6594 52.4864 60.9463C52.2159 61.3679 52.0894 61.8812 51.8958 62.3523C51.9703 62.4342 52.0472 62.5135 52.1216 62.5953C52.5435 62.4242 53.0323 62.3374 53.3722 62.0647C55.139 60.6463 56.9703 59.2824 58.5881 57.7053C61.3152 55.0421 63.9976 52.3442 67.3474 50.4547C68.2705 49.9339 69.2904 49.5 70.3201 49.2669C72.0571 48.8751 73.1539 50.0554 72.531 51.692C72.0124 53.0584 71.268 54.3652 70.4392 55.5678C70.1638 55.9671 69.3077 55.9646 68.7196 56.1456C68.5608 55.5778 68.3177 55.0198 68.273 54.4445C68.2383 53.9883 68.4492 53.5146 68.4368 52.9741C65.2258 55.6422 62.0224 58.2906 60.1043 62.1168C60.0869 62.1539 60.0596 62.1936 60.0596 62.2308C60.0695 62.702 59.9107 63.3244 60.1489 63.6046C60.3871 63.8823 61.0869 63.9964 61.4789 63.8674C62.6105 63.4955 63.7444 63.064 64.7767 62.4788C69.2978 59.9173 73.2581 56.592 77.139 53.1749C77.5559 52.8079 77.8462 52.2673 78.1167 51.764C80.4243 47.4691 83.2507 43.5611 86.9454 40.3548C88.1167 39.3381 89.4988 38.5496 90.8462 37.7635C91.1911 37.5626 91.9305 37.5874 92.1985 37.8305C92.4591 38.0685 92.5286 38.7876 92.3698 39.167C91.8189 40.4961 91.1911 41.8005 90.4814 43.0527C89.876 44.124 89.1216 45.1084 88.2035 46.4698C89.0894 46.073 89.6377 45.8052 90.2035 45.5796C91.8859 44.915 93.3871 45.0142 93.8636 45.9143C94.608 47.3253 93.7072 48.3965 92.8735 49.3512C90.5559 52.007 87.4541 53.4998 84.3127 54.9107C83.7147 55.1785 83.1067 55.4265 82.5162 55.6794C82.8884 57.1995 84.0199 58.2955 85.4938 58.1591C86.8983 58.0302 88.4541 57.7897 89.6154 57.0705C92.6601 55.1835 95.5658 53.0608 98.4541 50.9333C100.548 49.3934 102.434 47.5584 104.591 46.1201C105.928 45.2274 107.578 44.791 109.117 44.2207C109.988 43.8983 110.583 44.4166 110.531 45.2324C110.459 46.4003 110.362 47.67 109.859 48.6866C108.948 50.5241 107.73 52.2128 106.63 53.9585C106.414 54.3007 106.154 54.6156 105.677 55.2653C106.372 55.0719 106.742 55.0025 107.084 54.8661C110.784 53.3956 113.839 51.092 116.201 47.8683C116.955 46.8392 117.806 45.8722 118.687 44.9448C119.975 43.5908 121.303 42.413 122.117 40.5507C123.563 37.2477 127.444 36.5683 130.258 38.8347C130.955 39.3952 131.521 39.4844 132.375 39.2737C133.73 38.9364 135.137 38.6884 136.529 38.6463C139.074 38.5719 140.112 39.6506 140.221 42.2022C140.228 42.3609 140.263 42.5196 140.315 42.8866C140.739 42.6039 141.05 42.3782 141.38 42.1824C142.975 41.2425 144.538 40.2333 146.194 39.4051C147.144 38.9315 148.31 38.6165 149.241 39.4571C150.191 40.3176 149.831 41.4558 149.504 42.4799C148.504 45.6093 146.561 48.1857 144.581 50.7374C144.352 51.03 144.221 51.3994 144.045 51.7342C144.454 51.8532 144.906 52.1434 145.268 52.0566C146.548 51.7516 147.814 51.3548 149.06 50.9233C154.521 49.0239 159.943 47.0004 165.439 45.215C168.665 44.1686 172.015 43.5536 175.459 43.9801C177.027 44.1736 178.025 45.1183 178.995 46.4896C178.536 46.6235 178.243 46.7921 177.955 46.7822C170.96 46.5392 164.39 48.5354 157.844 50.6158C154.3 51.7416 150.804 53.0212 147.251 54.1122C146.171 54.4445 144.958 54.5462 143.829 54.4594C141.663 54.2933 140.968 53.0584 141.958 51.149C142.735 49.6512 143.717 48.2601 144.635 46.8368C145.397 45.6564 146.228 44.5207 146.958 43.323C147.166 42.9808 147.134 42.4923 147.213 42.0732C146.759 42.1452 146.213 42.0807 145.866 42.3113C144.906 42.9486 143.901 43.5958 143.144 44.4438C140.648 47.2459 138.251 50.1373 135.821 53.0013C135.635 53.2195 135.509 53.4898 135.333 53.718C134.62 54.6379 132.96 54.9925 132.223 54.39C131.558 53.8469 131.677 52.8203 132.534 51.7317C133.63 50.3356 134.792 48.9842 135.794 47.5261C136.37 46.6905 136.782 45.706 137.097 44.7365C137.424 43.7297 137.427 42.656 136.531 41.8649C135.638 41.0764 134.516 40.9152 133.519 41.4459C132.687 41.8873 131.873 42.5667 131.35 43.3404C128.501 47.5385 125.34 51.449 121.266 54.5214C120.055 55.4339 118.727 56.2473 117.345 56.8672C114.566 58.1095 113.524 57.6706 112.253 54.9281C111.866 55.1612 111.489 55.3893 111.112 55.6174C108.417 57.2565 105.645 58.727 102.496 59.2924C101.891 59.4015 101.263 59.456 100.648 59.4411C98.3524 59.3866 97.4492 58.5509 96.6353 55.7092C96.3201 55.9621 96.0621 56.2026 95.7742 56.3961C93.5211 57.9087 91.3698 59.6271 88.9727 60.8645C86.4864 62.149 83.9057 61.7423 81.608 60.0363C80.8784 59.4957 80.1489 58.9502 79.3971 58.4418C78.4417 57.7946 77.5856 57.7872 76.8189 58.8039C74.4343 61.9705 72.0174 65.1122 69.6154 68.2664C69.3524 68.6136 69.0993 68.9682 68.8412 69.3203C68.6799 69.3054 68.5187 69.2906 68.3574 69.2757C68.2978 68.5764 68.005 67.7879 68.2283 67.1927C68.799 65.6553 69.5906 64.1972 70.3102 62.7168C70.5013 62.325 70.7544 61.9655 70.8214 61.415C70.5311 61.5861 70.2358 61.7547 69.9479 61.9333C67.6303 63.369 65.3425 64.8519 62.9851 66.2182C62.144 66.7067 61.1613 67.0216 60.2035 67.2225C58.4864 67.582 57.5881 66.8952 57.3995 65.1569C57.2804 64.0584 57.2879 62.9475 57.2258 61.5985C56.7916 61.8787 56.5062 62.0523 56.2333 62.2432C54.9851 63.121 53.7941 64.098 52.4789 64.8643C50.278 66.1463 49.4442 65.7743 48.675 63.2153C48.3325 63.5227 48.0472 63.7707 47.7718 64.0311C46.0621 65.6503 44.3822 67.2993 42.6378 68.8789C42 69.4542 41.2457 69.9179 40.4938 70.3469C38.3574 71.5669 37.3524 71.4256 35.6626 69.7195C32.5509 74.3244 29.4467 78.9193 26.1316 83.8266C27.0794 83.7745 27.8313 83.8985 28.4591 83.6729C42.0993 78.7581 56.0968 75.1204 70.2928 72.2861C82.3276 69.8832 94.4045 67.6688 106.511 65.6603C120.906 63.2698 135.35 61.1943 149.772 58.965C151.73 58.6625 153.672 58.2583 155.623 57.9062C155.908 57.8541 156.196 57.7946 156.484 57.7946C157.295 57.7996 158.256 57.621 158.439 58.7791C158.558 59.5304 157.598 60.3909 156.62 60.4901C154.648 60.6909 152.66 60.805 150.697 61.0827C140.63 62.5061 130.541 63.8079 120.509 65.4619C107.501 67.6068 94.5137 69.8931 81.5708 72.3952C66.1514 75.3758 50.7817 78.6217 35.8586 83.6431C34.4492 84.1168 33.067 84.6697 31.6775 85.2004C30.206 85.7633 28.8586 86.4526 27.7544 87.6801C26.4938 89.0811 24.7246 89.5275 22.8809 89.3564C21.933 89.2696 21.3995 89.6217 20.7693 90.259C18.3598 92.6916 15.9132 95.0895 13.3772 97.3882C12.6105 98.0825 11.5509 98.5214 10.5559 98.876C9.44669 99.2703 8.67994 98.7148 8.79656 97.5543C8.91567 96.3839 9.21344 95.1862 9.67994 94.1075C11.4814 89.9342 14.1812 86.3187 17.0174 82.8099C21.4442 77.3298 26.4169 72.3704 31.6204 67.6341C31.9504 67.3341 32.2705 67.0216 32.5956 66.7166C32.5459 66.6348 32.4988 66.553 32.4492 66.4736L32.4442 66.4662ZM34.5162 50.41C34.5162 50.3952 34.5137 50.3828 34.5112 50.3679C33.7742 50.4447 33.0174 50.4472 32.3003 50.6109C23.7271 52.5624 16.5757 56.9193 10.8239 63.5302C9.89582 64.594 9.21592 65.938 8.67498 67.2572C7.97274 68.9632 8.69235 70.1262 10.5186 70.3544C11.608 70.4907 12.7618 70.4659 13.8412 70.27C20.9678 68.9781 27.6105 66.2802 34.1241 63.2128C34.9355 62.8309 35.8263 62.6226 36.6477 62.2556C37.0422 62.0796 37.5683 61.787 37.675 61.4373C38.2531 59.5478 38.8636 57.6483 39.1911 55.7042C39.8437 51.8334 38.5658 50.4249 34.6427 50.41C34.6005 50.41 34.5608 50.41 34.5186 50.41H34.5162ZM32.7048 70.1337C32.6278 70.0841 32.5509 70.032 32.4765 69.9824C31.3077 71.1404 30.1191 72.2811 28.9752 73.4614C23.6253 78.9813 18.3648 84.5854 13.8313 90.8169C12.938 92.0444 12.211 93.4033 11.4988 94.7498C11.3028 95.1192 11.4442 95.6648 11.4293 96.131C11.871 96.007 12.4095 95.9995 12.7345 95.7342C13.6576 94.9779 14.5534 94.1695 15.3574 93.2867C21.0497 87.0354 25.8263 80.0897 30.6353 73.1663C31.3325 72.1621 32.0174 71.1454 32.7072 70.1361L32.7048 70.1337ZM128.727 43.4768C128.633 43.3255 128.541 43.1742 128.447 43.023C127.563 43.2635 126.608 43.3652 125.809 43.7718C121.566 45.9342 118.159 49.066 115.536 53.0237C115.196 53.537 115.221 54.2957 115.077 54.9405C115.727 54.809 116.474 54.8388 117.015 54.5214C121.181 52.0714 124.794 48.9644 127.752 45.1283C128.139 44.6273 128.402 44.0297 128.725 43.4792L128.727 43.4768ZM108.744 46.1102C106.543 46.9211 105.186 48.7784 103.504 50.172C101.744 51.6301 99.9827 53.0881 98.1886 54.576C99.2407 55.6422 100.573 55.8778 101.886 55.2207C105.479 53.4229 107.581 50.3307 108.94 46.6632C108.963 46.6062 108.891 46.5144 108.747 46.1127L108.744 46.1102ZM39.7469 67.0663C44.9405 63.4409 49.5112 59.1411 53.8561 54.137C51.1464 54.3974 40.2755 64.4477 39.7469 67.0663ZM91.7072 47.3848C89.8784 47.303 84.3028 51.2308 83.4293 53.0832C86.5633 51.5333 89.5856 50.1125 91.7072 47.3848ZM89.5534 40.9301C87.1837 42.2419 85.8462 44.4389 84.4988 46.6285C86.5137 45.0167 88.469 43.3577 89.5534 40.9301Z" fill="white"/>
<path d="M80.3821 31.1428C77.6625 33.2654 75.3201 35.2319 72.8312 36.9875C71.3275 38.0463 69.6575 38.939 67.9454 39.616C65.9627 40.3971 64.7171 39.492 64.8163 37.3743C64.9057 35.46 65.325 33.5605 65.6228 31.4949C65.3126 31.733 65.0173 31.9562 64.7245 32.1843C61.2407 34.9021 57.7866 37.662 54.2506 40.3128C53.3126 41.017 52.1563 41.4832 51.0372 41.8775C49.4838 42.4255 48.5657 41.6915 48.7866 40.0499C48.9627 38.753 49.4044 37.4909 49.7444 36.2163C49.8461 35.8319 50.0049 35.46 49.9553 34.9318C49.6575 35.1723 49.3598 35.4104 49.062 35.6509C46.7766 37.4934 44.5186 39.3655 42.196 41.1608C41.3201 41.8378 40.3349 42.4032 39.3399 42.8917C37.5285 43.7819 36.4094 43.2463 36.2655 41.2179C36.1737 39.9061 36.3176 38.4009 36.8982 37.2553C38.4789 34.1333 40.1761 31.0436 42.1439 28.1548C44.3498 24.9163 46.9032 21.9133 49.3052 18.8087C49.5558 18.4864 49.8064 18.164 49.9131 17.6234C49.5806 17.8441 49.2382 18.0475 48.9206 18.2855C41.9131 23.5648 35.9801 29.955 30.129 36.4345C28.722 37.9918 27.201 39.4622 25.6079 40.8261C25.1091 41.2526 24.0694 41.4882 23.5161 41.2526C23.129 41.0865 22.8635 39.8788 23.0446 39.2936C23.7146 37.1412 24.2878 34.8673 25.4541 32.9828C28.2779 28.4201 31.4243 24.0558 34.4144 19.5948C35.4019 18.1218 36.3374 16.6092 37.2357 15.0792C37.4739 14.6726 37.4863 14.1345 37.6029 13.6584C37.4739 13.5592 37.3424 13.46 37.2134 13.3608C36.3325 13.9163 35.3449 14.3552 34.5905 15.047C31.5732 17.8069 28.5111 20.5321 25.6799 23.4755C17.6178 31.8545 10.1464 40.7443 3.11411 50.0035C2.72205 50.5193 2.26051 51.0549 1.70716 51.3574C1.27292 51.5955 0.650086 51.4864 0.111625 51.5335C0.0892922 51.0251 -0.104256 50.4449 0.0793667 50.0258C0.456538 49.1678 0.957779 48.3396 1.53842 47.6007C9.43421 37.5529 17.0347 27.2943 24.0322 16.5968C24.6873 15.595 25.3474 14.5833 25.8585 13.5071C26.4342 12.2945 25.9379 11.5779 24.6278 11.811C23.3424 12.0391 22.0496 12.4334 20.8585 12.9715C14.4516 15.8678 8.63768 19.7138 3.22081 24.1798C2.7146 24.5964 2.19351 25.0551 1.59798 25.2857C1.21832 25.432 0.523535 25.3527 0.275396 25.0874C0.0247761 24.8171 0.0396644 24.1699 0.143883 23.7384C0.230731 23.3788 0.558275 22.9994 0.883337 22.7887C6.46646 19.1782 12.0049 15.4934 17.6923 12.054C19.6749 10.8538 22.0273 10.2636 24.2233 9.42302C24.6005 9.27919 25.0322 9.2544 25.4416 9.22216C28.2605 8.99155 29.4094 10.276 28.4094 12.9541C27.5781 15.1759 26.3151 17.2415 25.1811 19.3443C24.7146 20.2122 24.0818 20.9909 23.6997 21.9852C24.0943 21.5686 24.4714 21.1347 24.8858 20.7404C27.9057 17.8664 30.8734 14.9329 33.9925 12.1681C35.1091 11.1787 36.5384 10.4645 37.933 9.88672C39.5533 9.2172 40.6575 10.0677 40.5186 11.8358C40.4317 12.964 40.1985 14.1766 39.665 15.1536C38.0099 18.1987 36.2531 21.1917 34.4069 24.1227C32.3349 27.4084 30.1191 30.5998 27.9751 33.8407C27.665 34.3119 27.4094 34.8202 27.3573 35.5021C27.7146 35.1004 28.0794 34.7086 28.4268 34.2995C36.3052 25.07 45.062 16.8175 55.2928 10.2116C56.0843 9.70074 56.9255 9.21472 57.8064 8.89732C58.9305 8.49313 59.6228 9.11305 59.196 10.214C58.6352 11.6572 57.9603 13.1203 57.0297 14.3452C51.9553 21.0231 46.7692 27.6191 41.6675 34.2772C40.8684 35.3186 40.263 36.5163 39.6253 37.6719C39.4069 38.0686 39.3622 38.5596 39.2382 39.006C39.3275 39.0977 39.4168 39.1895 39.5037 39.2812C40.1414 38.9837 40.8436 38.7754 41.4019 38.3687C43.3697 36.9329 45.3771 35.5269 47.2084 33.9275C52.0992 29.6624 56.9106 25.3056 61.7518 20.9834C61.9975 20.7627 62.2034 20.4627 62.4863 20.3238C63.1464 19.9965 64.0223 19.3419 64.4863 19.5477C65.4417 19.9717 65.1414 21.0653 64.8188 21.8588C64.5359 22.5605 64.0943 23.24 63.5781 23.7979C60.2928 27.3414 56.933 30.8155 53.6799 34.3863C52.8312 35.3186 52.2357 36.494 51.598 37.6C51.4193 37.9099 51.4962 38.3662 51.4565 38.758C51.8833 38.7456 52.392 38.8795 52.7196 38.6935C54.1191 37.9025 55.5905 37.166 56.8089 36.1419C61.9603 31.8049 66.9975 27.3315 72.1513 22.997C73.9106 21.5166 75.8387 20.2172 77.7915 18.9972C78.7394 18.4045 79.9876 17.8491 81.0347 18.7691C82.057 19.6667 81.8461 21.0281 81.3126 22.0076C80.196 24.0533 78.8486 25.9776 77.4987 27.8845C77.2754 28.1994 76.4367 28.4002 76.1042 28.2291C75.7617 28.0531 75.4392 27.2893 75.5434 26.8951C75.8883 25.5734 76.4292 24.3013 76.8982 23.0019C76.6625 23.1953 76.3498 23.3838 76.1215 23.6442C73.7568 26.347 71.3399 29.0078 69.0868 31.8024C68.1712 32.9381 67.5806 34.354 66.9478 35.6906C66.7741 36.0601 66.8089 36.7891 67.0595 37.0247C67.3225 37.2727 68.0024 37.2627 68.4193 37.1214C69.2332 36.8437 70.067 36.5039 70.7593 36.003C74.1687 33.5308 77.5483 31.0114 80.9032 28.4647C81.3771 28.1052 81.6724 27.5076 82.0347 27.0067C85.7047 21.9133 89.3374 16.7927 93.0645 11.7415C94.0148 10.4546 95.2084 9.33375 96.392 8.24267C97.1712 7.52356 98.0744 6.87883 99.0322 6.43745C99.5235 6.21179 100.417 6.30354 100.831 6.62838C101.179 6.90115 101.347 7.83848 101.149 8.28235C100.499 9.74042 99.7866 11.2134 98.8436 12.4954C95.6203 16.8845 91.6526 20.5743 87.5335 24.1054C85.8982 25.5064 84.5707 27.8721 84.2977 30.0691C84.7469 29.5905 85.0397 29.288 85.3225 28.9755C87.9404 26.0867 90.7518 23.4061 94.0719 21.3306C95.0744 20.7032 96.1836 20.1874 97.3126 19.8353C98.459 19.4782 99.0248 20.0238 98.789 21.1892C98.6104 22.0646 98.3151 22.9697 97.8486 23.7235C96.3945 26.0768 94.8238 28.3556 93.3225 30.6791C92.665 31.6958 92.067 32.7521 91.4417 33.7887C91.5533 33.925 91.665 34.0639 91.7766 34.2003C92.2655 34.0317 92.8536 33.9796 93.2307 33.6721C95.5881 31.7404 98.1464 29.9773 100.174 27.7382C104.675 22.7614 109.538 18.2731 115.412 14.99C116.975 14.1171 118.759 13.6286 120.464 13.0211C120.871 12.8773 121.37 12.9045 121.814 12.9591C123.141 13.1203 123.514 13.6757 122.963 14.8833C122.471 15.967 121.908 17.0556 121.184 17.9904C119.136 20.6363 116.958 23.1805 114.896 25.8139C113.985 26.9794 113.191 28.244 112.424 29.5112C112.223 29.8459 112.315 30.3567 112.27 30.7882C112.7 30.7932 113.211 30.9544 113.543 30.7783C115.33 29.8335 117.069 28.7995 118.831 27.8076C121.332 26.3942 123.079 24.4005 124.543 21.8637C126.325 18.7814 128.62 15.962 130.945 13.2443C131.908 12.116 133.444 11.3547 134.866 10.7943C135.578 10.5141 136.799 10.8067 137.461 11.2902C138.325 11.9176 137.871 13.031 137.38 13.7749C136.452 15.1809 135.519 16.6439 134.313 17.7945C131.926 20.0734 129.325 22.1266 126.876 24.341C126.298 24.8642 125.819 25.6007 125.546 26.3322C125.112 27.5001 125.655 28.001 126.866 27.5943C127.72 27.3067 128.566 26.9199 129.325 26.4363C131.417 25.1047 133.486 23.7359 135.506 22.3002C136.045 21.9183 136.474 21.2909 136.777 20.6859C140.221 13.7848 144.806 7.77649 150.829 2.94353C152.251 1.80286 154.007 1.06639 155.665 0.248085C156.186 -0.00980471 156.883 -0.0122844 157.489 0.0298707C159.223 0.156336 159.886 1.15318 159.181 2.72036C158.695 3.79903 158.06 4.84795 157.318 5.77288C153.099 11.0224 147.96 15.3346 142.898 19.7188C141.68 20.7751 140.461 21.8365 139.171 22.7986C138.32 23.4334 138.449 23.9417 139.072 24.5964C140.268 25.8486 141.801 26.2578 143.447 26.357C147.603 26.6099 151.595 25.6676 155.526 24.5195C160.047 23.1978 164.509 21.6802 169 20.2569C169.665 20.0461 170.395 19.7064 170.799 20.6412C171.127 21.4025 170.561 22.3993 169.643 22.6672C164.883 24.0558 160.144 25.5089 155.352 26.7785C151.233 27.8696 147.042 28.6929 142.744 28.5391C141.603 28.4994 140.447 28.2663 139.337 27.9688C137.635 27.5125 136.645 26.2975 136.268 24.4426C135.891 24.6956 135.633 24.8642 135.377 25.0402C133.471 26.3495 131.595 27.7059 129.65 28.9507C128.861 29.4566 127.948 29.8137 127.047 30.0889C125.037 30.7039 123.26 30.4609 122.151 28.249C121.695 28.5713 121.342 28.8367 120.975 29.0772C118.935 30.4113 116.918 31.7776 114.839 33.0448C114.112 33.4886 113.256 33.7763 112.419 33.9722C110.856 34.3416 109.97 33.7168 109.638 32.1496C109.571 31.8322 109.496 31.5172 109.385 31.0139C108.638 31.5892 108.032 32.1372 107.35 32.5612C106.303 33.2109 105.251 33.9077 104.109 34.3466C102.427 34.9913 101.31 34.3466 100.784 32.6232C100.595 32.0058 100.491 31.361 100.313 30.5675C99.9627 30.87 99.7369 31.0833 99.4938 31.2718C97.2481 33.0125 95.0496 34.8177 92.7245 36.4469C91.856 37.0569 90.6079 37.6545 89.6178 36.7618C88.5955 35.8394 89.2084 34.5847 89.727 33.6622C91.1811 31.0734 92.7965 28.5763 94.3449 26.0396C94.6501 25.5411 94.9404 25.0328 95.2382 24.5269C95.1464 24.4228 95.0546 24.3211 94.9652 24.217C94.3449 24.5542 93.6898 24.8419 93.1067 25.2337C88.9057 28.0556 85.4416 31.6164 82.4565 35.6906C81.7419 36.6651 80.7047 37.414 79.7667 38.2075C79.526 38.4108 78.933 38.5596 78.7816 38.4232C78.5335 38.2001 78.3474 37.6818 78.4268 37.3595C78.8039 35.8419 79.2729 34.3441 79.727 32.8464C79.866 32.3852 80.0694 31.9438 80.3771 31.1502L80.3821 31.1428ZM118.208 17.5292C118.136 17.425 118.067 17.3209 117.995 17.2168C117.352 17.3581 116.638 17.3655 116.079 17.6631C110.873 20.428 106.628 24.2542 103.546 29.3029C103.196 29.8782 103.007 30.6097 102.948 31.2866C102.849 32.3951 103.489 32.8389 104.499 32.3951C105.171 32.1 105.829 31.7107 106.399 31.2519C110.744 27.7654 114.442 23.6814 117.519 19.0393C117.821 18.5831 117.983 18.0351 118.208 17.5292ZM141.278 17.5565C141.332 17.6061 141.387 17.6581 141.444 17.7077C141.742 17.5267 142.077 17.3878 142.332 17.1597C146.193 13.7427 150.067 10.3405 153.883 6.87139C154.697 6.13244 155.335 5.17775 155.955 4.25778C156.194 3.90318 156.159 3.3626 156.248 2.90882C155.744 2.85922 155.112 2.58645 154.764 2.79475C153.427 3.59322 152.067 4.41648 150.921 5.46044C147.327 8.73118 144.35 12.5351 141.752 16.634C141.568 16.9241 141.437 17.249 141.28 17.5565H141.278ZM127.442 21.3083C130.238 19.4311 132.784 17.2961 134.754 14.556C134.945 14.2907 134.863 13.827 134.908 13.4575C134.521 13.4278 134.119 13.3236 133.749 13.393C133.447 13.4501 133.151 13.6757 132.903 13.8865C130.516 15.9248 128.906 18.5484 127.444 21.3083H127.442ZM97.6774 10.3331C97.5086 10.2066 97.3374 10.0801 97.1687 9.95368C94.928 12.7533 92.6873 15.5529 90.4466 18.3525C90.6005 18.474 90.7518 18.5955 90.9057 18.7195C93.1637 15.9248 95.4193 13.1302 97.6774 10.3356V10.3331Z" fill="white"/>
<path d="M67.6948 17.296C66.1787 17.2464 65.407 16.1107 65.4293 14.6204C65.4442 13.6781 66.0298 13.2863 66.8462 13.2491C67.608 13.2144 68.9628 15.1659 68.7196 16.1305C68.5856 16.6587 67.9256 17.0505 67.6973 17.296H67.6948Z" fill="white"/>
</g>
<defs>
<clipPath id="clip0_49_49">
<rect width="179" height="99" fill="white"/>
</clipPath>
</defs>
</svg>
